<?xml version="1.0" encoding="UTF-8"?>
<svg version="1.1" xmlns="http://www.w3.org/2000/svg" width="140" height="143">
<path d="M0 0 C1.73677696 -0.00202447 3.47355308 -0.00493901 5.21032715 -0.00869751 C8.8380549 -0.0131033 12.46556 -0.00674637 16.09326172 0.00732422 C20.72315956 0.02441509 25.35253551 0.01456451 29.98241425 -0.00339317 C33.5651232 -0.01427839 37.14771018 -0.01076303 40.73042297 -0.0030098 C42.43671227 -0.00102086 44.14301296 -0.00342069 45.84928894 -0.01044846 C67.05238154 -0.07863223 67.05238154 -0.07863223 75.03125 7.0234375 C76.11019531 7.93996094 76.11019531 7.93996094 77.2109375 8.875 C81.7626018 14.77936775 82.60459516 21.8223254 82.57617188 29.08007812 C82.58464142 29.89598923 82.59311096 30.71190033 82.60183716 31.55253601 C82.62502626 34.22008317 82.62623388 36.88704766 82.625 39.5546875 C82.63211107 41.42598699 82.63981144 43.29728433 82.64807129 45.1685791 C82.66147349 49.07875644 82.66310345 52.98873199 82.65722656 56.89892578 C82.65132587 61.8922344 82.68195726 66.88457228 82.72234344 71.87769318 C82.7482752 75.73835402 82.75109306 79.59878252 82.74745178 83.45951843 C82.74913702 85.29980413 82.75872169 87.14010125 82.77659607 88.9803009 C82.94440504 108.38569512 82.94440504 108.38569512 75.40075684 116.2220459 C69.39767228 121.97264525 63.07035572 123.85091519 54.88525391 123.81835938 C54.089142 123.82682892 53.29303009 123.83529846 52.47279358 123.84402466 C49.8593009 123.86728984 47.2464006 123.86841931 44.6328125 123.8671875 C42.80349496 123.87429564 40.97417963 123.88199559 39.14486694 123.89025879 C35.31689248 123.90367971 31.48912417 123.90528323 27.66113281 123.89941406 C22.77313158 123.8935216 17.88612484 123.92410174 12.99831581 123.96453094 C9.22171771 123.99047229 5.445357 123.99327952 1.6686821 123.98963928 C-0.13252892 123.99132465 -1.9337516 124.00091064 -3.73487473 124.01878357 C-16.67430432 124.13305903 -24.86992776 122.72059168 -34.3359375 113.4375 C-38.4627274 107.85671159 -39.28983909 102.69156947 -39.26367188 95.9597168 C-39.27214142 95.14570404 -39.28061096 94.33169128 -39.28933716 93.49301147 C-39.31261103 90.81939789 -39.31373149 88.1463632 -39.3125 85.47265625 C-39.31960829 83.6008939 -39.32730827 81.72913371 -39.33557129 79.8573761 C-39.34899472 75.93944235 -39.35059489 72.02171003 -39.34472656 68.10375977 C-39.338838 63.10376517 -39.36939703 58.10474409 -39.40984344 53.10493755 C-39.43580247 49.23994313 -39.43859034 45.37518042 -39.43495178 41.51011086 C-39.43663592 39.66786062 -39.44620985 37.82559885 -39.46409607 35.98343468 C-39.63566151 16.12681852 -39.63566151 16.12681852 -32.28649902 7.58940125 C-23.34115294 -1.01622876 -11.52526506 -0.04746994 0 0 Z " fill="#EE6452" transform="translate(46.84375,8.6015625)"/>
<path d="M0 0 C-0.15234375 2.84375 -0.15234375 2.84375 -1 6 C-3.44140625 7.46875 -3.44140625 7.46875 -6.5625 8.5 C-12.57464835 10.72857942 -18.72988195 13.28993652 -22.20703125 18.97265625 C-23.53741676 22.37398668 -23.01677959 24.53098729 -22 28 C-17.61626222 33.12644052 -12.12336767 35.55516072 -5.875 37.6875 C-5.04693848 37.98293701 -4.21887695 38.27837402 -3.36572266 38.58276367 C2.59415112 40.65804596 8.52019138 42.22985959 14.7265625 43.39453125 C15.85191406 43.69423828 15.85191406 43.69423828 17 44 C17.33 44.66 17.66 45.32 18 46 C10.52434409 46.13920285 3.04896888 46.24572172 -4.42772198 46.31087303 C-7.89979104 46.34214801 -11.37097161 46.38454491 -14.8425293 46.45263672 C-18.83651098 46.53048251 -22.82956392 46.55944881 -26.82421875 46.5859375 C-28.06709152 46.61690521 -29.30996429 46.64787292 -30.59049988 46.67977905 C-39.01366994 46.68306746 -39.01366994 46.68306746 -41.87974548 44.69821167 C-43.24267578 43.09472656 -43.24267578 43.09472656 -45 40 C-45.42667969 39.30648437 -45.85335937 38.61296875 -46.29296875 37.8984375 C-48.00665608 33.29704499 -47.4684326 28.46385187 -46 23.875 C-38.88539554 13.64775609 -27.50596124 8.53033044 -15.9375 4.9453125 C-12.21783776 3.74829353 -8.65029785 2.26777905 -5.05859375 0.734375 C-3 0 -3 0 0 0 Z " fill="#E75646" transform="translate(78,85)"/>
<path d="M0 0 C4.88258495 1.39502427 7.22366818 3.79584039 10 8 C10.66284543 12.12437159 10.33416992 14.28807277 8.5625 18.0625 C2.50337218 25.00832945 -6.34355352 29.45576951 -15 32.375 C-19.64291713 34.02397255 -23.22482852 36.89753195 -27 40 C-27.13478487 43.33054374 -27.13478487 43.33054374 -26 47 C-20.6314526 51.94435462 -13.10820727 53.91999786 -6.3125 56.0625 C-5.24974854 56.40466553 -4.18699707 56.74683105 -3.09204102 57.09936523 C-0.99996743 57.77124056 1.09349697 58.43880401 3.18847656 59.1015625 C5.54013107 59.8530464 7.87744205 60.63195817 10.2109375 61.4375 C17.98938701 64.10050417 17.98938701 64.10050417 26 63 C31.08052625 60.06892716 34.59549299 57.36390026 37 52 C37.33 52.99 37.66 53.98 38 55 C36.8828125 56.90234375 36.8828125 56.90234375 35.125 58.9375 C34.57070312 59.60652344 34.01640625 60.27554688 33.4453125 60.96484375 C24.40516186 68.4886752 14.24654628 67.55652411 3.10546875 67.4609375 C1.26703521 67.45854999 -0.5714008 67.4576484 -2.40983582 67.4581604 C-6.24693253 67.45504467 -10.08365234 67.4385677 -13.9206543 67.41162109 C-18.83794347 67.37752288 -23.75482187 67.36999664 -28.67221546 67.37151146 C-32.46146054 67.37096787 -36.25061591 67.36000445 -40.03983116 67.34550858 C-41.85351573 67.3391493 -43.66721043 67.33520372 -45.48090553 67.33372116 C-48.01064043 67.32938568 -50.53993897 67.31188304 -53.06958008 67.29052734 C-53.81717087 67.29143372 -54.56476166 67.29234009 -55.33500671 67.29327393 C-59.04285243 67.24749405 -61.84970872 67.05609797 -65 65 C-63.515 64.505 -63.515 64.505 -62 64 C-61.34 64.33 -60.68 64.66 -60 65 C-60.495 64.071875 -60.99 63.14375 -61.5 62.1875 C-63.94563821 56.32742004 -64.21287269 50.34279545 -62.0390625 44.3515625 C-56.50839322 33.96157686 -46.72548181 28.76841253 -36 25 C-34.37337772 24.31634716 -32.7483875 23.62879898 -31.125 22.9375 C-23.63391577 19.94815566 -16.10611107 17.76017423 -8 18 C-9 20 -9 20 -11.625 20.9296875 C-12.73875 21.24164063 -13.8525 21.55359375 -15 21.875 C-19.8082846 23.29074356 -24.30171244 24.87241063 -28.828125 27.01171875 C-31.16107721 28.07329592 -33.53011921 28.9340303 -35.9375 29.8125 C-43.29344093 32.72733463 -50.6684801 37.22022972 -55 44 C-56.60983442 48.82950327 -57.10822251 53.61152045 -54.91796875 58.33203125 C-53.43912193 60.69733379 -51.97944608 63.02055392 -50 65 C-48.22008076 65.09370624 -46.43643261 65.11744271 -44.65405273 65.11352539 C-43.5129454 65.11344986 -42.37183807 65.11337433 -41.19615173 65.11329651 C-39.33368553 65.10555458 -39.33368553 65.10555458 -37.43359375 65.09765625 C-36.16983414 65.0962413 -34.90607452 65.09482635 -33.60401917 65.09336853 C-30.23875111 65.08870582 -26.8735501 65.0797148 -23.50830078 65.06866455 C-20.0765033 65.05844846 -16.64469891 65.05387049 -13.21289062 65.04882812 C-6.47524176 65.0377738 0.26237525 65.0210171 7 65 C5.94361328 64.74387939 4.88722656 64.48775879 3.79882812 64.22387695 C-26.65318349 56.77466499 -26.65318349 56.77466499 -33 48 C-34.30319395 44.02182899 -34.48660677 42.16244951 -32.875 38.3125 C-27.41749868 31.58158171 -19.49320644 27.77089487 -11.4375 25 C-5.35478433 22.89280397 0.80278364 20.05914472 5 15 C5.67683719 9.92372109 5.50031768 7.19362585 2.5 3 C1.2625 1.515 1.2625 1.515 0 0 Z " fill="#F4EAE7" transform="translate(88,65)"/>
<path d="M0 0 C1.73677696 -0.00202447 3.47355308 -0.00493901 5.21032715 -0.00869751 C8.8380549 -0.0131033 12.46556 -0.00674637 16.09326172 0.00732422 C20.72315956 0.02441509 25.35253551 0.01456451 29.98241425 -0.00339317 C33.5651232 -0.01427839 37.14771018 -0.01076303 40.73042297 -0.0030098 C42.43671227 -0.00102086 44.14301296 -0.00342069 45.84928894 -0.01044846 C67.05238154 -0.07863223 67.05238154 -0.07863223 75.03125 7.0234375 C76.11019531 7.93996094 76.11019531 7.93996094 77.2109375 8.875 C81.79153182 14.81689545 82.60234545 21.86049975 82.52856445 29.15942383 C82.53221512 29.98336639 82.53586578 30.80730896 82.53962708 31.65621948 C82.54765661 34.34785322 82.53419229 37.03887067 82.51953125 39.73046875 C82.51901198 41.6137441 82.51953227 43.49701999 82.52104187 45.3802948 C82.5209525 49.31147436 82.51059137 53.24244731 82.49243164 57.17358398 C82.46966743 62.21192668 82.46921831 67.24997003 82.47594929 72.28835011 C82.4792888 76.1702287 82.47266079 80.052039 82.46282005 83.93390465 C82.45897333 85.79224986 82.45781765 87.65060267 82.4594059 89.50895119 C82.45977656 92.10092324 82.4471587 94.6925097 82.4309082 97.28442383 C82.43338562 98.05071609 82.43586304 98.81700836 82.43841553 99.60652161 C82.40090616 103.35329914 82.24981767 106.21841577 80.15625 109.3984375 C78.98966857 105.89869322 79.04331131 103.18075347 79.05859375 99.48706055 C79.06078415 98.43748924 79.06078415 98.43748924 79.0630188 97.36671448 C79.06682453 95.84602339 79.07294083 94.32533674 79.08108521 92.8046627 C79.09388193 90.38521313 79.10037474 87.96581868 79.10522461 85.54634094 C79.1185821 79.52702006 79.14258108 73.50775045 79.16662598 67.48846436 C79.18652652 62.41610301 79.20210683 57.3437625 79.21218872 52.27137184 C79.21857876 49.91091295 79.23109437 47.55054069 79.24389648 45.19010925 C80.33676371 26.08638587 80.33676371 26.08638587 73.15625 9.3984375 C66.37628296 4.30117967 60.09578724 3.28069971 51.73901367 3.23730469 C50.64528694 3.22985733 50.64528694 3.22985733 49.52946472 3.22225952 C47.12770631 3.20770704 44.72601393 3.20084753 42.32421875 3.1953125 C40.64659118 3.18955542 38.96896362 3.18379776 37.29133606 3.17803955 C33.77682185 3.16754927 30.26233038 3.16169369 26.74780273 3.15820312 C22.25898506 3.15272215 17.77047126 3.12869433 13.28174877 3.10023117 C9.81662637 3.08154713 6.35157636 3.07639613 2.88640785 3.07486725 C1.23230643 3.07185327 -0.4217941 3.06386741 -2.07584572 3.05068207 C-4.39690484 3.03349994 -6.71723202 3.03553094 -9.03833008 3.04199219 C-11.01425896 3.03652374 -11.01425896 3.03652374 -13.03010559 3.03094482 C-19.10038229 3.61589245 -24.0611749 5.53558838 -28.84375 9.3984375 C-29.50375 9.3984375 -30.16375 9.3984375 -30.84375 9.3984375 C-31.17375 10.3884375 -31.50375 11.3784375 -31.84375 12.3984375 C-33.90625 13.5859375 -33.90625 13.5859375 -35.84375 14.3984375 C-34.48379499 9.26082969 -31.27765031 6.10763201 -26.84375 3.3984375 C-18.13107907 -0.46181247 -9.33830086 -0.03846233 0 0 Z " fill="#F8D4CE" transform="translate(46.84375,8.6015625)"/>
<path d="M0 0 C0.99 0 1.98 0 3 0 C3 3.63 3 7.26 3 11 C3.99 10.67 4.98 10.34 6 10 C5.34 9.34 4.68 8.68 4 8 C4.375 5.375 4.375 5.375 5 3 C9.75 3.875 9.75 3.875 12 5 C12 4.34 12 3.68 12 3 C14.75105422 2.89187997 17.49785087 2.81265055 20.25 2.75 C21.02730469 2.71648437 21.80460937 2.68296875 22.60546875 2.6484375 C28.39919916 2.54939937 28.39919916 2.54939937 31.5 4.875 C32.98677994 6.98127159 33.63774648 8.46422538 34 11 C34 8.69 34 6.38 34 4 C34.99 4 35.98 4 37 4 C37 8.95 37 13.9 37 19 C36.01 19 35.02 19 34 19 C34 18.01 34 17.02 34 16 C23.77 16 13.54 16 3 16 C3 17.32 3 18.64 3 20 C2.01 20 1.02 20 0 20 C0 13.4 0 6.8 0 0 Z " fill="#F3DCD6" transform="translate(50,64)"/>
<path d="M0 0 C3 0.875 3 0.875 6 2 C6.64364502 1.80664062 7.28729004 1.61328125 7.95043945 1.4140625 C10 1 10 1 11.87182617 1.96875 C12.50580322 2.4740625 13.13978027 2.979375 13.79296875 3.5 C14.50203369 4.05461914 15.21109863 4.60923828 15.94165039 5.18066406 C16.68278076 5.78104492 17.42391113 6.38142578 18.1875 7 C18.94474365 7.59780273 19.7019873 8.19560547 20.48217773 8.81152344 C21.98192279 9.996388 23.47788019 11.18606497 24.96972656 12.38085938 C27.47148074 14.37600532 30.01540801 16.31323357 32.5625 18.25 C33.72868982 19.14062512 34.88453519 20.04661127 36 21 C36 21.33 36 21.66 36 22 C30.81843689 22.87823104 28.27391821 22.80482197 23.75390625 19.94921875 C20.4074898 17.41378989 17.19880012 14.7181514 14 12 C9.50169376 8.06175952 9.50169376 8.06175952 3.75390625 7.05078125 C-0.92042923 8.23274121 -3.57043413 10.29832456 -7.1875 13.375 C-8.38923139 14.3620906 -9.5910519 15.34907273 -10.79296875 16.3359375 C-12.59271964 17.82569959 -14.381444 19.32488269 -16.16015625 20.83984375 C-19.35438797 22.85404082 -22.31120966 22.18443952 -26 22 C-26 21.34 -26 20.68 -26 20 C-24.26059253 18.55945979 -22.45528806 17.19815535 -20.625 15.875 C-19.52242334 15.069094 -18.42087761 14.26177586 -17.3203125 13.453125 C-16.76375977 13.04513672 -16.20720703 12.63714844 -15.63378906 12.21679688 C-12.40289184 9.81052195 -9.28609773 7.26173916 -6.15625 4.7265625 C-5.4446875 4.15679687 -4.733125 3.58703125 -4 3 C-3.3090625 2.4121875 -2.618125 1.824375 -1.90625 1.21875 C-1.2771875 0.8165625 -0.648125 0.414375 0 0 Z " fill="#F7EDEA" transform="translate(64,38)"/>
<path d="M0 0 C2.8125 1.0625 2.8125 1.0625 5 3 C6.25845129 6.0202831 6.59269862 6.90356516 6 10 C3.97197809 13.89359245 1.57486543 17.44912572 -1 21 C-5.4237684 19.52541053 -6.50600806 16.50383629 -8.75390625 12.57421875 C-10.27748696 9.42675891 -10.81701636 7.43146871 -10 4 C-7.19196516 -0.10405092 -4.83980844 -0.69140121 0 0 Z " fill="#F8F0ED" transform="translate(71,17)"/>
<path d="M0 0 C0.33 0 0.66 0 1 0 C0.99777939 1.08470581 0.99555878 2.16941162 0.99327087 3.2869873 C0.97296812 13.52693048 0.95799352 23.76686955 0.94818783 34.00682831 C0.94297712 39.2708368 0.93591243 44.53482901 0.92456055 49.79882812 C0.91366722 54.88220886 0.90770952 59.96557395 0.90512276 65.04896545 C0.90328011 66.98495225 0.89968193 68.92093823 0.89426994 70.85691833 C0.88697393 73.57585476 0.88601266 76.29472718 0.88647461 79.01367188 C0.88287933 79.80777466 0.87928406 80.60187744 0.87557983 81.42004395 C0.8846231 86.36343195 1.15816361 91.12193881 2 96 C3.79927039 97.27489266 3.79927039 97.27489266 6 98 C7.37868281 99.62935241 8.71274093 101.29749607 10 103 C10.98230498 104.0173873 11.97469597 105.02596117 13 106 C7.81035717 104.58464286 4.21587964 101.18369175 1 97 C-1.73938929 91.62155624 -2.43239775 87.46995815 -2.37231445 81.48193359 C-2.37596512 80.65988937 -2.37961578 79.83784515 -2.38337708 78.9908905 C-2.39143569 76.2931913 -2.37791409 73.59610157 -2.36328125 70.8984375 C-2.36276218 69.0146993 -2.3632817 67.13096056 -2.36479187 65.2472229 C-2.36470236 61.3082872 -2.35431506 57.36955709 -2.33618164 53.43066406 C-2.31346409 48.38563636 -2.31295837 43.34090794 -2.31969929 38.29584312 C-2.32304229 34.4096308 -2.31640342 30.52348655 -2.30657005 26.63728714 C-2.30272585 24.77697735 -2.3015666 22.91665998 -2.3031559 21.05634689 C-2.30352728 18.4571771 -2.29088697 15.85838962 -2.2746582 13.25927734 C-2.27713562 12.49343826 -2.27961304 11.72759918 -2.28216553 10.93855286 C-2.24153462 6.85550764 -1.82084682 3.67527744 0 0 Z " fill="#F5CAC5" transform="translate(10,23)"/>
<path d="M0 0 C2.50037734 2.17424117 3.43628586 3.73045798 4 7 C4.66 7 5.32 7 6 7 C7.24314715 10.72944144 7.1475271 14.19540864 7.14526367 18.07983398 C7.15030159 19.31443359 7.15030159 19.31443359 7.15544128 20.57397461 C7.16494961 23.29802962 7.16689428 26.02202317 7.16796875 28.74609375 C7.17118121 30.6379448 7.17454527 32.5297956 7.17805481 34.42164612 C7.18404563 38.38860653 7.18589474 42.35554515 7.18530273 46.32250977 C7.18520107 51.40807722 7.19885815 56.49350519 7.21607494 61.57903957 C7.22718749 65.48664493 7.22922218 69.39421647 7.22869301 73.30183601 C7.22987406 75.17693628 7.23430284 77.05203738 7.24202538 78.92712212 C7.25181101 81.54843832 7.24895297 84.1694505 7.24291992 86.79077148 C7.24853943 87.56649002 7.25415894 88.34220856 7.25994873 89.14143372 C7.23787494 92.91136097 7.11750815 95.80288783 5 99 C3.83341857 95.50025572 3.88706131 92.78231597 3.90234375 89.08862305 C3.90453415 88.03905174 3.90453415 88.03905174 3.9067688 86.96827698 C3.91057453 85.44758589 3.91669083 83.92689924 3.92483521 82.4062252 C3.93763193 79.98677563 3.94412474 77.56738118 3.94897461 75.14790344 C3.9623321 69.12858256 3.98633108 63.10931295 4.01037598 57.09002686 C4.03027652 52.01766551 4.04585683 46.945325 4.05593872 41.87293434 C4.06232876 39.51247545 4.07484437 37.15210319 4.08764648 34.79167175 C4.72376025 17.84260131 4.72376025 17.84260131 0 2 C0 1.34 0 0.68 0 0 Z " fill="#F7BBB1" transform="translate(122,19)"/>
<path d="M0 0 C0.99 0.495 0.99 0.495 2 1 C0.62757886 6.18470207 -2.66475245 9.10983497 -7 12 C-12.08715542 14.51995125 -15.72330467 15.3705894 -21.49584961 15.34057617 C-22.20888245 15.34101425 -22.92191528 15.34145233 -23.65655518 15.34190369 C-25.98877357 15.33983115 -28.32025259 15.31657435 -30.65234375 15.29296875 C-32.27901314 15.2873673 -33.90568762 15.2830998 -35.53236389 15.28010559 C-39.79527986 15.26869997 -44.05788485 15.23927019 -48.32067871 15.20599365 C-52.67793574 15.17519996 -57.03524344 15.16158046 -61.39257812 15.14648438 C-69.92852746 15.11439592 -78.46422495 15.06325205 -87 15 C-87 14.67 -87 14.34 -87 14 C-58.29 13.505 -58.29 13.505 -29 13 C-30.32 12.01 -31.64 11.02 -33 10 C-33 9.34 -33 8.68 -33 8 C-23.76182573 9.71618257 -23.76182573 9.71618257 -19.8125 11.1875 C-16.11962376 12.25433091 -13.71937161 11.9298429 -10 11 C-3.86458511 7.54926173 -3.86458511 7.54926173 -0.3125 1.8125 C-0.209375 1.214375 -0.10625 0.61625 0 0 Z " fill="#FAF6F5" transform="translate(124,117)"/>
<path d="M0 0 C0.99 0 1.98 0 3 0 C3 4.95 3 9.9 3 15 C2.01 15 1.02 15 0 15 C0 13.68 0 12.36 0 11 C-8.58 11 -17.16 11 -26 11 C-26 10.01 -26 9.02 -26 8 C-17.42 8 -8.84 8 0 8 C0 5.36 0 2.72 0 0 Z " fill="#FAFAF9" transform="translate(84,68)"/>
<path d="M0 0 C3.63 0 7.26 0 11 0 C11 3.63 11 7.26 11 11 C7.37 11 3.74 11 0 11 C0 7.37 0 3.74 0 0 Z " fill="#EEADA0" transform="translate(63,51)"/>
<path d="M0 0 C2.77141717 -0.08089542 5.54047819 -0.14044062 8.3125 -0.1875 C9.09818359 -0.21263672 9.88386719 -0.23777344 10.69335938 -0.26367188 C11.45068359 -0.27333984 12.20800781 -0.28300781 12.98828125 -0.29296875 C14.03302612 -0.31653442 14.03302612 -0.31653442 15.09887695 -0.34057617 C17.60718396 0.10877381 18.48831511 0.98018574 20 3 C20 3.99 20 4.98 20 6 C13.4 6 6.8 6 0 6 C0 4.02 0 2.04 0 0 Z " fill="#F7EBE9" transform="translate(63,68)"/>
<path d="M0 0 C4.75 0.875 4.75 0.875 7 2 C7 1.34 7 0.68 7 0 C12.61 0 18.22 0 24 0 C24 0.33 24 0.66 24 1 C18.72 1 13.44 1 8 1 C8.33 2.98 8.66 4.96 9 7 C15.6 7.33 22.2 7.66 29 8 C29 8.33 29 8.66 29 9 C18.77 9 8.54 9 -2 9 C-1.01 8.34 -0.02 7.68 1 7 C0.34 6.34 -0.32 5.68 -1 5 C-0.625 2.375 -0.625 2.375 0 0 Z " fill="#EE9E90" transform="translate(55,67)"/>
<path d="M0 0 C1.84228293 0.20113532 3.67580379 0.48574321 5.5 0.8125 C6.5003125 0.98394531 7.500625 1.15539062 8.53125 1.33203125 C9.3459375 1.55246094 10.160625 1.77289063 11 2 C11.495 2.99 11.495 2.99 12 4 C-7.14 4 -26.28 4 -46 4 C-46 3.67 -46 3.34 -46 3 C-45.43845718 2.97716446 -44.87691437 2.95432892 -44.2983551 2.93080139 C-38.47494129 2.69305768 -32.651832 2.4487041 -26.82885742 2.20043945 C-24.65314778 2.10855845 -22.47736531 2.01838619 -20.30151367 1.92993164 C-17.1812722 1.80279228 -14.06134084 1.6695907 -10.94140625 1.53515625 C-9.96224747 1.49656998 -8.98308868 1.4579837 -7.97425842 1.41822815 C-6.62297096 1.35827919 -6.62297096 1.35827919 -5.24438477 1.29711914 C-4.04858543 1.24715538 -4.04858543 1.24715538 -2.82862854 1.19618225 C-0.9823852 1.19159985 -0.9823852 1.19159985 0 0 Z " fill="#E8796E" transform="translate(84,127)"/>
<path d="M0 0 C-1 2 -1 2 -3.625 2.9296875 C-4.73875 3.24164063 -5.8525 3.55359375 -7 3.875 C-12.0111708 5.33590238 -16.62618385 7.03421791 -21.29296875 9.36328125 C-22.13794922 9.67845703 -22.13794922 9.67845703 -23 10 C-23.66 9.67 -24.32 9.34 -25 9 C-24.67 7.68 -24.34 6.36 -24 5 C-21.12754022 4.15693004 -18.2525541 3.32534498 -15.375 2.5 C-14.16263672 2.14228516 -14.16263672 2.14228516 -12.92578125 1.77734375 C-8.49566164 0.51674061 -4.65691843 -0.30141867 0 0 Z " fill="#F1D9D3" transform="translate(80,83)"/>
<path d="M0 0 C0.66 0.66 1.32 1.32 2 2 C1.01 2 0.02 2 -1 2 C-0.649375 2.556875 -0.29875 3.11375 0.0625 3.6875 C1.21845993 6.53886783 0.80967438 8.08517222 0 11 C-1.98 11 -3.96 11 -6 11 C-6.12375 9.865625 -6.2475 8.73125 -6.375 7.5625 C-6.58125 6.386875 -6.7875 5.21125 -7 4 C-7.66 3.67 -8.32 3.34 -9 3 C-6.40257043 -0.46323942 -4.16948329 -0.44356205 0 0 Z " fill="#F4DCD4" transform="translate(71,17)"/>
<path d="M0 0 C1.85625 0.061875 1.85625 0.061875 3.75 0.125 C1.67191323 2.20308677 0.59070953 2.6555555 -2.125 3.5625 C-5.29690756 4.68875703 -7.61661987 5.99803912 -10.25 8.125 C-10.91 8.125 -11.57 8.125 -12.25 8.125 C-12.58 9.115 -12.91 10.105 -13.25 11.125 C-15.3125 12.3125 -15.3125 12.3125 -17.25 13.125 C-15.70634353 7.29340887 -11.29826899 3.94060245 -6.2890625 0.95703125 C-4.02375521 0.03268173 -2.43286225 -0.08109541 0 0 Z " fill="#F7DCD8" transform="translate(28.25,9.875)"/>
<path d="M0 0 C3.63 0 7.26 0 11 0 C11 1.65 11 3.3 11 5 C7.37 5 3.74 5 0 5 C0 3.35 0 1.7 0 0 Z " fill="#F2CDC7" transform="translate(63,57)"/>
<path d="M0 0 C4.88258495 1.39502427 7.22366818 3.79584039 10 8 C10.4375 11.75 10.4375 11.75 10 15 C9.34 15.66 8.68 16.32 8 17 C5.59608072 14.59608072 5.60963906 13.48601277 5.125 10.1875 C4.34055458 5.81611466 3.21035346 3.21035346 0 0 Z " fill="#F4E2DE" transform="translate(88,65)"/>
<path d="M0 0 C0.99 0 1.98 0 3 0 C3 4.95 3 9.9 3 15 C2.01 15 1.02 15 0 15 C0 13.35 0 11.7 0 10 C-0.66 9.67 -1.32 9.34 -2 9 C-1.67 8.67 -1.34 8.34 -1 8 C-0.76924918 6.65252916 -0.58846937 5.29622435 -0.4375 3.9375 C-0.293125 2.638125 -0.14875 1.33875 0 0 Z " fill="#F8EFEB" transform="translate(84,68)"/>
<path d="M0 0 C1.67542976 0.28604898 3.34385343 0.61781233 5 1 C5.33 2.65 5.66 4.3 6 6 C4.02 6 2.04 6 0 6 C-0.38218767 4.34385343 -0.71395102 2.67542976 -1 1 C-0.67 0.67 -0.34 0.34 0 0 Z " fill="#F5E4DF" transform="translate(55,67)"/>
<path d="M0 0 C0.99 0.33 1.98 0.66 3 1 C2.67 6.94 2.34 12.88 2 19 C2.66 19.33 3.32 19.66 4 20 C3.01 20.66 2.02 21.32 1 22 C1 21.34 1 20.68 1 20 C0.01 19.67 -0.98 19.34 -2 19 C-1.01 19 -0.02 19 1 19 C1 14.05 1 9.1 1 4 C0.34 3.67 -0.32 3.34 -1 3 C-0.34 3 0.32 3 1 3 C0.67 2.01 0.34 1.02 0 0 Z " fill="#EA8E7B" transform="translate(86,64)"/>
<path d="M0 0 C1.65 0 3.3 0 5 0 C5.33 1.65 5.66 3.3 6 5 C4.34385343 5.38218767 2.67542976 5.71395102 1 6 C0 5 0 5 -0.0625 2.4375 C-0.041875 1.633125 -0.02125 0.82875 0 0 Z " fill="#EF8161" transform="translate(66,22)"/>
<path d="M0 0 C0.33 0.66 0.66 1.32 1 2 C1.598125 2.268125 2.19625 2.53625 2.8125 2.8125 C5.66793106 4.36259115 7.05310403 6.42507308 9 9 C9.98230498 10.0173873 10.97469597 11.02596117 12 12 C6.85975112 10.59811394 3.20417153 7.14603175 0 3 C0 2.01 0 1.02 0 0 Z " fill="#F7DBD8" transform="translate(11,117)"/>
<path d="M0 0 C-2.05123248 2.05123248 -3.27005063 2.64147118 -5.9375 3.625 C-6.97197266 4.01558594 -6.97197266 4.01558594 -8.02734375 4.4140625 C-10 5 -10 5 -13 5 C-8.7797731 -0.27528362 -6.38501231 -0.54110274 0 0 Z " fill="#F4C6BE" transform="translate(32,10)"/>
<path d="M0 0 C6.33561644 2.2260274 6.33561644 2.2260274 8 5 C7.9398132 7.76312116 7.49362014 10.26265195 7 13 C6.67 13 6.34 13 6 13 C5.62875 11.1746875 5.62875 11.1746875 5.25 9.3125 C4.2950075 5.41640742 2.77218915 2.95700176 0 0 Z " fill="#EDC7BF" transform="translate(88,65)"/>
<path d="M0 0 C1.98 1.65 3.96 3.3 6 5 C6.33 4.34 6.66 3.68 7 3 C7 3.66 7 4.32 7 5 C7.66 5.33 8.32 5.66 9 6 C7.35 6.66 5.7 7.32 4 8 C2 6.25 2 6.25 0 4 C0 2.68 0 1.36 0 0 Z " fill="#F1927F" transform="translate(64,33)"/>
<path d="M0 0 C3.38552696 1.45094013 5.68132949 3.1216504 8 6 C8.75 9.25 8.75 9.25 9 12 C8.608125 11.443125 8.21625 10.88625 7.8125 10.3125 C5.97325283 7.86086563 5.97325283 7.86086563 3.375 5.4375 C1 3 1 3 0 0 Z " fill="#FBE8E4" transform="translate(118,14)"/>
<path d="M0 0 C0.66 0.33 1.32 0.66 2 1 C1.67 1.33 1.34 1.66 1 2 C2.32 2.66 3.64 3.32 5 4 C4 5 4 5 2.15234375 5.09765625 C0.1015625 5.06510417 -1.94921875 5.03255208 -4 5 C-4 4.34 -4 3.68 -4 3 C-2 1.375 -2 1.375 0 0 Z " fill="#EFCCC5" transform="translate(42,55)"/>
<path d="M0 0 C0 3 0 3 -1.75 5.04296875 C-2.4925 5.75066406 -3.235 6.45835938 -4 7.1875 C-4.7425 7.90292969 -5.485 8.61835937 -6.25 9.35546875 C-6.8275 9.89816406 -7.405 10.44085938 -8 11 C-8 8 -8 8 -5.6875 5.5 C-4.800625 4.675 -3.91375 3.85 -3 3 C-2.401875 2.401875 -1.80375 1.80375 -1.1875 1.1875 C-0.795625 0.795625 -0.40375 0.40375 0 0 Z " fill="#F1E4E0" transform="translate(37,97)"/>
<path d="M0 0 C0.33 0 0.66 0 1 0 C1 4.95 1 9.9 1 15 C0.01 15 -0.98 15 -2 15 C-2 14.01 -2 13.02 -2 12 C-1.34 12 -0.68 12 0 12 C0 8.04 0 4.08 0 0 Z " fill="#F5E8E3" transform="translate(86,68)"/>
<path d="M0 0 C1.32 0 2.64 0 4 0 C4 1.65 4 3.3 4 5 C2.68 5 1.36 5 0 5 C0 3.35 0 1.7 0 0 Z " fill="#F1D6D0" transform="translate(70,51)"/>
<path d="M0 0 C-0.33 0.66 -0.66 1.32 -1 2 C-3.875 2.75 -3.875 2.75 -7 3 C-7.99 2.34 -8.98 1.68 -10 1 C-6.61981469 -0.04005702 -3.5219721 -0.08004482 0 0 Z " fill="#EBB4A8" transform="translate(80,83)"/>
</svg>
